<svg width="21" height="22" viewBox="0 0 21 22" fill="none" xmlns="http://www.w3.org/2000/svg">
<path fill-rule="evenodd" clip-rule="evenodd" d="M12.7272 21.8514C11.9329 21.6409 11.1933 21.2143 10.6164 20.6219C10.4158 20.4159 10.3403 20.1808 10.3478 19.9559C10.3562 19.7031 10.4738 19.4597 10.6541 19.2833C10.8351 19.1064 11.0762 18.9996 11.3235 19.0063C11.5384 19.0121 11.7629 19.1004 11.9597 19.3181L12.0006 19.3615C12.3443 19.7196 12.7676 19.9953 13.2292 20.1486C13.674 20.2963 14.1546 20.3301 14.6322 20.2127C15.542 19.9893 16.1138 19.4079 16.7026 18.6426C16.7754 18.5462 16.8479 18.4471 16.9206 18.3465C16.9634 18.2583 17.0305 18.1965 17.109 18.1585C17.1961 18.1163 17.2994 18.1047 17.398 18.1255C17.4931 18.1455 17.5822 18.1952 17.6471 18.2683C17.7088 18.3377 17.7503 18.4279 17.7547 18.5373C17.7835 19.248 17.4971 19.9224 17.0388 20.4822C16.5299 21.1038 15.8105 21.5813 15.1044 21.8073C14.3265 22.0563 13.5011 22.0564 12.7272 21.8514ZM3.57439 7.19442C3.518 6.01977 5.25452 5.52725 5.57913 6.65493C5.86985 7.66508 5.80636 8.63571 5.46193 9.62342C5.1328 10.567 3.96466 10.2974 3.77618 9.50114C3.52354 8.4338 3.60947 7.92512 3.57439 7.19442ZM16.9858 4.94017C17.191 4.58501 17.5189 4.31832 17.962 4.38792C19.3465 4.60559 19.1977 6.55045 18.8482 7.53289C18.6582 8.06641 17.8516 8.29959 17.4228 7.90676C16.7239 7.2661 16.2483 5.86792 16.9275 5.06034C16.9437 5.02105 16.9621 4.98112 16.9858 4.94017ZM4.44725 1.90976L4.65324 1.84568C5.29065 1.64877 6.08731 1.4358 6.61616 1.90043C6.89664 2.1468 7.04751 2.65254 6.75305 2.96103C6.23512 3.50378 5.57229 3.4049 4.88433 3.53398C4.3174 3.64048 3.78067 3.80584 3.25079 4.03412C2.08833 4.53487 1.18613 5.29156 0.24453 6.11611C0.120968 6.22427 -0.0394346 6.0691 0.00878447 5.93426C0.453424 4.6919 1.48306 3.58562 2.56286 2.85291C3.13917 2.46183 3.78048 2.11634 4.44725 1.90976ZM15.1122 0.00252967L15.2777 0.0147234C17.0805 0.155087 19.4557 0.593693 20.5095 2.21061C20.5727 2.45033 20.5459 2.5069 20.5231 2.54455L20.5155 2.55708C20.4969 2.58913 20.4842 2.63162 20.3828 2.67845C20.3525 2.67524 20.322 2.67167 20.291 2.66769C19.8971 2.61701 19.5779 2.51835 19.2676 2.41328L18.931 2.29822C18.5407 2.16559 18.1479 2.03993 17.7388 1.96253C16.8659 1.79742 15.9794 1.71615 15.0912 1.72631C14.8987 1.72853 14.7078 1.68809 14.5496 1.59699C14.3994 1.51052 14.2763 1.37985 14.204 1.19438C14.1102 0.954363 14.1037 0.76433 14.2079 0.523441C14.2863 0.342522 14.4144 0.207595 14.5701 0.11951C14.7289 0.0297117 14.9176 -0.0109828 15.1122 0.00252967Z" fill="black"/>
</svg>
