<svg width="80" height="35" viewBox="0 0 80 35" fill="none" xmlns="http://www.w3.org/2000/svg">
<path fill-rule="evenodd" clip-rule="evenodd" d="M50.8547 15.5901C54.6022 18.5421 61.1837 25.2726 55.1618 29.4518C51.3297 32.1104 44.6885 32.3014 41.1758 28.9434C36.7736 24.7346 40.4136 18.9442 44.035 15.7343C45.0772 14.8099 46.1997 13.9674 47.3737 13.1857C48.5781 13.9207 49.7452 14.7162 50.8547 15.5901ZM79.7857 1.24904C69.0084 1.34611 57.3803 3.97448 47.8791 9.53038C45.6957 8.34908 43.5378 7.39528 41.6761 6.69144C30.86 2.60362 17.4143 1.65049 6.16835 4.48758C4.93949 4.79803 4.83023 6.3284 5.53387 7.09653C5.09358 6.71592 4.65787 6.32976 4.22673 5.93807C5.29323 4.85504 6.49559 3.97389 7.90258 3.2558C8.76251 2.81728 9.80063 2.59908 10.6118 2.10242C11.095 1.80673 11.0014 1.41378 11.5718 1.16325C11.7538 1.08336 11.793 0.792575 11.5601 0.742812C10.9224 0.607041 10.6303 0.1401 9.98673 0.0310633C8.97305 -0.141132 7.28136 0.442908 6.36605 0.789888C4.0865 1.65401 2.11943 3.10524 0.458593 4.86998C-0.234845 5.60728 -0.0912424 6.66722 0.550566 7.37074C2.1237 9.09564 3.94175 10.5974 5.83142 11.9618C7.4689 13.1434 9.25276 14.5917 11.2654 14.9745C12.8432 15.2755 13.8407 13.4167 12.7173 12.2667C11.3465 10.863 9.38473 10.0645 7.79356 8.90985C7.1113 8.41491 6.46386 7.88587 5.82727 7.34453C6.05573 7.48306 6.33245 7.55846 6.6557 7.53515C17.0996 6.78166 27.0051 5.78471 37.2593 8.77642C39.7782 9.51025 42.2448 10.4639 44.5951 11.6441C44.398 11.7819 44.1932 11.9125 43.997 12.0535C37.5598 16.705 31.7518 26.8473 40.5427 32.5364C46.7818 36.5753 60.6275 34.9105 60.8897 25.5631C61.0575 19.5909 56.1772 14.6854 50.7022 11.1917C53.6956 9.57303 56.8756 8.2436 59.9238 7.00874C66.2778 4.43356 73.0327 2.75737 79.7958 1.68519C80.064 1.64245 80.0755 1.24622 79.7857 1.24904Z" fill="black"/>
</svg>
