<svg width="42" height="79" viewBox="0 0 42 79" fill="none" xmlns="http://www.w3.org/2000/svg">
<path fill-rule="evenodd" clip-rule="evenodd" d="M23.4779 31.2441C27.1009 28.1729 34.9724 23.0856 37.8562 29.7895C39.6906 34.0555 38.5604 40.573 34.5877 43.3346C29.6087 46.7954 24.6806 42.0961 22.2667 37.9265C21.5713 36.7264 20.9719 35.4642 20.4419 34.1638C21.3977 33.1344 22.4052 32.1534 23.4779 31.2441ZM15.2214 0.173887C13.1797 10.7083 13.4391 22.5746 16.9764 32.9461C15.3911 34.8423 14.0327 36.7586 12.9769 38.4355C6.84443 48.1783 3.24912 61.1081 3.78793 72.6429C3.84724 73.9034 5.31874 74.3134 6.20767 73.7791C5.74903 74.1332 5.28589 74.4818 4.81826 74.8248C3.97299 73.5696 3.3516 72.2218 2.92989 70.7066C2.6725 69.7807 2.66539 68.7246 2.34161 67.8347C2.14889 67.3046 1.74695 67.318 1.61558 66.7118C1.5737 66.5184 1.29777 66.4225 1.20305 66.6399C0.944169 67.2352 0.430666 67.4277 0.196715 68.0339C-0.172235 68.9888 0.0622557 70.7552 0.219356 71.717C0.610592 74.1124 1.63659 76.3193 3.02919 78.2896C3.61109 79.1123 4.67373 79.1823 5.48736 78.6956C7.48216 77.5026 9.30784 76.0265 11.0136 74.4532C12.491 73.0898 14.2577 71.6364 15.0302 69.7487C15.6367 68.2689 14.0208 66.9271 12.6761 67.7953C11.0348 68.8544 9.8668 70.6102 8.42483 71.9338C7.80667 72.5014 7.16216 73.0282 6.50779 73.542C6.68824 73.3466 6.81666 73.0915 6.858 72.7715C8.19313 62.4323 9.18399 52.57 14.1357 43.1582C15.351 40.846 16.7703 38.6285 18.3877 36.5692C18.4832 36.7889 18.5699 37.0146 18.6687 37.2339C21.9309 44.4367 30.6753 52.114 37.9687 44.6646C43.1462 39.3779 44.2665 25.5389 35.1984 23.4301C29.4047 22.0825 23.6511 25.8717 19.157 30.521C18.1711 27.2795 17.5043 23.9133 16.9038 20.6945C15.6508 13.9846 15.3544 7.06157 15.6489 0.250404C15.6604 -0.0196725 15.2761 -0.10951 15.2214 0.173887Z" fill="black"/>
</svg>
