<svg width="49" height="65" viewBox="0 0 49 65" fill="none" xmlns="http://www.w3.org/2000/svg">
<path fill-rule="evenodd" clip-rule="evenodd" d="M27.5785 16.9251C28.0484 12.198 30.1714 3.06753 36.9058 5.88292C41.1906 7.67501 44.9091 13.147 43.9727 17.8946C42.7987 23.8448 35.9881 23.892 31.3535 22.5721C30.0192 22.1926 28.7106 21.7019 27.4254 21.1352C27.3971 19.7306 27.4395 18.3247 27.5785 16.9251ZM0.0407101 0.324898C5.89658 9.31892 14.333 17.6708 24.0871 22.669C24.2655 25.1346 24.621 27.4569 25.0278 29.3967C27.3918 40.6656 33.7959 52.4621 42.2028 60.3814C43.1218 61.2465 44.4649 60.5183 44.7326 59.5161C44.649 60.0896 44.5584 60.6622 44.4606 61.234C42.9801 60.9191 41.5963 60.382 40.2397 59.5857C39.4109 59.0989 38.6715 58.3445 37.82 57.9297C37.3129 57.6825 37.0332 57.9716 36.5173 57.6271C36.3527 57.5172 36.0877 57.64 36.1707 57.8622C36.3984 58.4702 36.163 58.9656 36.4163 59.5642C36.8149 60.5073 38.2115 61.6143 38.9931 62.1967C40.9398 63.647 43.2119 64.5206 45.583 64.9691C46.5734 65.1561 47.3862 64.4677 47.6328 63.552C48.2377 61.3074 48.5242 58.9767 48.6569 56.6596C48.7713 54.6521 49.0312 52.3788 48.2742 50.4843C47.6814 48.9987 45.5868 49.1573 45.2234 50.7165C44.7797 52.6191 45.1605 54.6936 45.0439 56.6478C44.994 57.4857 44.8969 58.3126 44.7836 59.137C44.7774 58.871 44.6924 58.5983 44.4997 58.3395C38.2715 49.977 32.1274 42.1968 29.1443 31.9868C28.4107 29.4794 27.8895 26.8981 27.6208 24.293C27.8422 24.3845 28.0615 24.4865 28.285 24.5756C35.6383 27.4866 47.2633 26.9273 47.3284 16.5004C47.3756 9.09953 38.5597 -1.63005 30.5734 3.15808C25.4707 6.21716 23.968 12.9419 23.969 19.4093C21.0065 17.764 18.1868 15.8071 15.5171 13.9102C9.95114 9.95669 4.92492 5.18489 0.401342 0.0826575C0.221804 -0.119493 -0.116978 0.0830899 0.0407101 0.324898Z" fill="black"/>
</svg>
