<svg width="59" height="46" viewBox="0 0 59 46" fill="none" xmlns="http://www.w3.org/2000/svg">
<path d="M57.0984 30.4408L57.7047 30.9311C57.8434 30.7595 57.9029 30.5373 57.8686 30.3194L57.0984 30.4408ZM57.0984 30.4408C57.7047 30.9311 57.7044 30.9314 57.7041 30.9317L57.7033 30.9328L57.7005 30.9362L57.691 30.9478L57.6561 30.9902C57.6257 31.0268 57.5813 31.0799 57.5232 31.1483C57.4069 31.285 57.2356 31.4827 57.012 31.7312C56.5648 32.2281 55.9078 32.929 55.0617 33.7528C53.3707 35.399 50.9177 37.5428 47.869 39.5303C41.7823 43.4984 33.2291 46.8991 23.6154 44.3231C14.0016 41.7471 8.29469 34.5254 5.00746 28.0456C3.36101 24.8001 2.30849 21.7169 1.66722 19.4458C1.34634 18.3093 1.12776 17.3738 0.98899 16.7199C0.919591 16.3928 0.870111 16.136 0.837747 15.9595C0.821565 15.8712 0.809659 15.803 0.80168 15.7561L0.792611 15.7019L0.790203 15.6871L0.789516 15.6828L0.7893 15.6814C0.789227 15.681 0.789168 15.6806 1.55929 15.5592M57.0984 30.4408C57.8686 30.3194 57.8685 30.319 57.8684 30.3186L57.8682 30.3172L57.8675 30.3129L57.8651 30.2981L57.8561 30.2439C57.8481 30.197 57.8362 30.1288 57.82 30.0405C57.7876 29.864 57.7381 29.6072 57.6687 29.2801C57.53 28.6262 57.3114 27.6906 56.9905 26.5542C56.3493 24.2831 55.2967 21.1999 53.6503 17.9544C50.363 11.4745 44.6562 4.25287 35.0424 1.67686C25.4286 -0.899149 16.8755 2.50158 10.7887 6.46968C7.74007 8.45716 5.287 10.601 3.59609 12.2472C2.74997 13.0709 2.09291 13.7718 1.64575 14.2688C1.42213 14.5173 1.25087 14.715 1.13458 14.8517C1.07643 14.92 1.03202 14.9732 1.00166 15.0098L0.966702 15.0522L0.957203 15.0638L0.954462 15.0672L0.953596 15.0683C0.953302 15.0686 0.953065 15.0689 1.55929 15.5592M1.55929 15.5592L0.789168 15.6806C0.754809 15.4627 0.814361 15.2404 0.953065 15.0689L1.55929 15.5592Z" fill="#44E2F8" stroke="black" stroke-width="1.55568" stroke-linejoin="round"/>
</svg>
